<?xml version="1.0" encoding="UTF-8" standalone="no"?>
<!DOCTYPE svg PUBLIC "-//W3C//DTD SVG 1.1//EN" "http://www.w3.org/Graphics/SVG/1.1/DTD/svg11.dtd">
<svg width="100%" height="100%" viewBox="0 0 1287 1835" version="1.1" xmlns="http://www.w3.org/2000/svg" xmlns:xlink="http://www.w3.org/1999/xlink" xml:space="preserve" xmlns:serif="http://www.serif.com/" style="fill-rule:evenodd;clip-rule:evenodd;stroke-linejoin:round;stroke-miterlimit:2;">
    <g transform="matrix(1,0,0,1,-256.912,17.4599)">
        <g transform="matrix(6.38539,0,0,6.38539,-2040.05,-3563.09)">
            <g>
                <path d="M522.054,571.512L533.382,636.551L526.742,636.551C523.226,624.832 519.776,615.587 516.39,608.817C513.005,602.046 509.229,596.382 505.062,591.824C498.421,584.403 490.446,578.608 481.136,574.442C471.826,570.275 462.093,568.192 451.937,568.192C437.614,568.192 425.895,572.065 416.781,579.813C407.666,587.56 403.109,597.554 403.109,609.793C403.109,623.205 409.033,634.337 420.882,643.192C427.002,647.619 433.545,651.558 440.511,655.008C447.477,658.459 458.382,663.309 473.226,669.559C483.382,673.595 491.976,677.241 499.007,680.496C506.039,683.752 511.703,686.681 516,689.285C520.296,691.89 524.593,694.884 528.89,698.27C546.989,712.853 556.039,731.929 556.039,755.496C556.039,770.991 551.807,784.989 543.343,797.489C534.88,809.989 523.161,819.787 508.187,826.883C493.213,833.979 476.611,837.528 458.382,837.528C445.752,837.528 431.169,835.64 414.632,831.864C404.867,829.52 392.041,825.353 376.156,819.364L370.687,817.41L364.828,743.387L370.687,743.387C376.416,763.309 385.661,781.082 398.421,796.707C415.218,817.15 435.205,827.371 458.382,827.371C470.231,827.371 480.746,825.125 489.925,820.633C499.105,816.141 506.299,809.956 511.507,802.078C516.716,794.201 519.32,785.184 519.32,775.028C519.32,766.043 517.302,757.938 513.265,750.711C509.229,743.485 502.653,736.649 493.539,730.203C484.424,723.758 471.924,717.15 456.039,710.379C432.992,700.353 418.994,693.973 414.046,691.239C404.541,685.9 396.664,680.106 390.414,673.856C384.164,667.606 379.541,660.835 376.546,653.543C373.552,646.252 372.054,638.439 372.054,630.106C372.054,617.215 375.472,605.431 382.308,594.754C389.144,584.077 398.519,575.679 410.433,569.559C422.347,563.439 435.531,560.379 449.984,560.379C459.098,560.379 469.255,561.877 480.453,564.871L492.171,567.996C500.895,570.34 510.205,571.512 520.101,571.512L522.054,571.512ZM507.21,815.653C528.695,800.158 539.437,781.538 539.437,759.793C539.437,751.199 537.647,742.834 534.066,734.696C530.485,726.558 525.375,719.624 518.734,713.895C509.098,705.171 492.106,695.731 467.757,685.574C447.575,676.981 434.457,671.186 428.402,668.192C422.347,665.197 416.195,661.16 409.945,656.082C396.924,645.666 390.414,632.515 390.414,616.629C390.414,611.942 390.934,607.677 391.976,603.836C393.018,599.995 394.58,596.284 396.664,592.703C398.747,589.123 402.197,584.337 407.015,578.348C388.395,591.759 379.085,608.491 379.085,628.543C379.085,647.814 386.638,663.048 401.742,674.246C409.684,680.236 418.799,685.574 429.085,690.262C430.388,690.913 440.414,695.34 459.164,703.543C481.82,713.309 497.445,722.163 506.039,730.106C519.71,742.736 526.546,757.645 526.546,774.832C526.546,783.166 525.016,790.555 521.957,797C518.897,803.446 513.981,809.663 507.21,815.653ZM376.937,808.035C385.531,812.983 396.468,817.736 409.75,822.293C401.026,814.481 394.417,808.035 389.925,802.957C385.433,797.879 380.322,790.718 374.593,781.473L376.937,808.035Z" style="fill:rgb(100,221,23);fill-rule:nonzero;"/>
                <path d="M536.098,638.835L523.975,569.228L520.101,569.228C510.415,569.228 501.303,568.085 492.764,565.791L481.042,562.665C469.628,559.612 459.274,558.095 449.984,558.095C435.149,558.095 421.619,561.246 409.39,567.527C397.1,573.84 387.436,582.509 380.385,593.523C373.31,604.572 369.77,616.766 369.77,630.106C369.77,638.748 371.328,646.849 374.434,654.411C377.538,661.969 382.32,668.993 388.799,675.471C395.181,681.853 403.221,687.778 412.928,693.23L412.935,693.234C417.913,695.985 431.973,702.401 455.128,712.473L455.135,712.477C470.847,719.174 483.209,725.696 492.22,732.068C501.011,738.285 507.378,744.855 511.271,751.825C515.122,758.72 517.036,766.456 517.036,775.028C517.036,784.709 514.567,793.309 509.602,800.819C504.613,808.364 497.714,814.279 488.921,818.582C480.035,822.93 469.853,825.087 458.382,825.087C435.878,825.087 416.498,815.109 400.188,795.26C387.624,779.874 378.523,762.372 372.882,742.756L372.407,741.103L362.356,741.103L368.527,819.064L375.369,821.508C391.358,827.536 404.269,831.725 414.099,834.084L414.112,834.087C430.852,837.91 445.606,839.811 458.382,839.811C476.97,839.811 493.896,836.183 509.165,828.947C524.532,821.664 536.549,811.597 545.234,798.769C553.956,785.887 558.322,771.464 558.322,755.496C558.322,731.195 548.985,711.529 530.323,696.491L530.313,696.484C525.93,693.03 521.557,689.983 517.183,687.332C512.829,684.694 507.091,681.722 499.967,678.424C492.909,675.156 484.284,671.496 474.091,667.445C459.316,661.224 448.461,656.397 441.525,652.962C434.68,649.571 428.25,645.701 422.235,641.352C411.036,632.978 405.393,622.474 405.393,609.793C405.393,598.266 409.676,588.85 418.26,581.553C426.987,574.135 438.223,570.476 451.937,570.476C461.769,570.476 471.191,572.493 480.203,576.526C489.213,580.559 496.933,586.164 503.36,593.347L503.368,593.356C507.414,597.782 511.066,603.276 514.347,609.838C517.688,616.519 521.085,625.644 524.554,637.207L525.042,638.835L536.098,638.835ZM522.054,571.512L533.382,636.551L526.742,636.551C523.226,624.832 519.776,615.587 516.39,608.817C513.005,602.046 509.229,596.382 505.062,591.824C498.421,584.403 490.446,578.608 481.136,574.442C471.826,570.275 462.093,568.192 451.937,568.192C437.614,568.192 425.895,572.065 416.781,579.813C407.666,587.56 403.109,597.554 403.109,609.793C403.109,623.205 409.033,634.337 420.882,643.192C427.002,647.619 433.545,651.558 440.511,655.008C447.477,658.459 458.382,663.309 473.226,669.559C483.382,673.595 491.976,677.241 499.007,680.496C506.039,683.752 511.703,686.681 516,689.285C520.296,691.89 524.593,694.884 528.89,698.27C546.989,712.853 556.039,731.929 556.039,755.496C556.039,770.991 551.807,784.989 543.343,797.489C534.88,809.989 523.161,819.787 508.187,826.883C493.213,833.979 476.611,837.528 458.382,837.528C445.752,837.528 431.169,835.64 414.632,831.864C404.867,829.52 392.041,825.353 376.156,819.364L370.687,817.41L364.828,743.387L370.687,743.387C376.416,763.309 385.661,781.082 398.421,796.707C415.218,817.15 435.205,827.371 458.382,827.371C470.231,827.371 480.746,825.125 489.925,820.633C499.105,816.141 506.299,809.956 511.507,802.078C516.716,794.201 519.32,785.184 519.32,775.028C519.32,766.043 517.302,757.938 513.265,750.711C509.229,743.485 502.653,736.649 493.539,730.203C484.424,723.758 471.924,717.15 456.039,710.379C432.992,700.353 418.994,693.973 414.046,691.239C404.541,685.9 396.664,680.106 390.414,673.856C384.164,667.606 379.541,660.835 376.546,653.543C373.552,646.252 372.054,638.439 372.054,630.106C372.054,617.215 375.472,605.431 382.308,594.754C389.144,584.077 398.519,575.679 410.433,569.559C422.347,563.439 435.531,560.379 449.984,560.379C459.098,560.379 469.255,561.877 480.453,564.871L492.171,567.996C500.895,570.34 510.205,571.512 520.101,571.512L522.054,571.512ZM376.937,808.035C385.531,812.983 396.468,817.736 409.75,822.293C401.026,814.481 394.417,808.035 389.925,802.957C385.433,797.879 380.322,790.718 374.593,781.473L376.937,808.035ZM379.107,806.642L377.682,790.497C381.503,796.196 385.015,800.853 388.215,804.471C391.159,807.799 395.002,811.71 399.746,816.203C391.82,813.103 384.939,809.918 379.107,806.642L379.107,806.642ZM507.21,815.653C528.695,800.158 539.437,781.538 539.437,759.793C539.437,751.199 537.647,742.834 534.066,734.696C530.485,726.558 525.375,719.624 518.734,713.895C509.098,705.171 492.106,695.731 467.757,685.574C447.575,676.981 434.457,671.186 428.402,668.192C422.347,665.197 416.195,661.16 409.945,656.082C396.924,645.666 390.414,632.515 390.414,616.629C390.414,611.942 390.934,607.677 391.976,603.836C393.018,599.995 394.58,596.284 396.664,592.703C398.747,589.123 402.197,584.337 407.015,578.348C388.395,591.759 379.085,608.491 379.085,628.543C379.085,647.814 386.638,663.048 401.742,674.246C409.684,680.236 418.799,685.574 429.085,690.262C430.388,690.913 440.414,695.34 459.164,703.543C481.82,713.309 497.445,722.163 506.039,730.106C519.71,742.736 526.546,757.645 526.546,774.832C526.546,783.166 525.016,790.555 521.957,797C518.897,803.446 513.981,809.663 507.21,815.653ZM393.058,594.592C391.668,597.401 390.573,600.283 389.772,603.238C388.681,607.259 388.13,611.722 388.13,616.629C388.13,633.227 394.911,646.979 408.515,657.863C414.903,663.053 421.197,667.176 427.389,670.239C433.462,673.243 446.619,679.056 466.863,687.676L466.87,687.679C490.904,697.704 507.693,706.979 517.201,715.588L517.221,715.606C523.624,721.13 528.534,727.794 531.975,735.615C535.425,743.455 537.153,751.514 537.153,759.793C537.153,772.794 533.151,784.621 525.187,795.3C527.608,789.223 528.83,782.402 528.83,774.832C528.83,757.005 521.769,741.528 507.589,728.428C498.873,720.373 483.05,711.352 460.073,701.448C441.394,693.276 431.404,688.868 430.107,688.219L430.07,688.201C419.908,683.57 410.935,678.318 403.117,672.423L403.109,672.417C388.606,661.665 381.369,647.038 381.369,628.543C381.369,615.833 385.278,604.522 393.058,594.592Z" style="fill:rgb(31,170,0);"/>
            </g>
        </g>
    </g>
</svg>
